<svg xmlns="http://www.w3.org/2000/svg" xmlns:xlink="http://www.w3.org/1999/xlink" width="0" height="0">
    <symbol id="cancel-circle" viewBox="0 0 24 24" fill="none">
        <path d="M14.9994 15L9 9M9.00064 15L15 9" stroke="currentColor" stroke-width="1.5" stroke-linecap="round" stroke-linejoin="round" />
        <path d="M22 12C22 6.47715 17.5228 2 12 2C6.47715 2 2 6.47715 2 12C2 17.5228 6.47715 22 12 22C17.5228 22 22 17.5228 22 12Z" stroke="currentColor" stroke-width="1.5" />
    </symbol>

    <symbol id="cancel" viewBox="0 0 24 24"  color="currentColor" fill="none">
        <path d="M19.0005 4.99988L5.00049 18.9999M5.00049 4.99988L19.0005 18.9999" stroke="currentColor" stroke-width="1.5" stroke-linecap="round" stroke-linejoin="round" />
    </symbol>

    <symbol id="checkmark-circle" viewBox="0 0 24 24"  color="currentColor" fill="none">
        <path d="M22 12C22 6.47715 17.5228 2 12 2C6.47715 2 2 6.47715 2 12C2 17.5228 6.47715 22 12 22C17.5228 22 22 17.5228 22 12Z" stroke="currentColor" stroke-width="1.5" />
        <path d="M8 12.5L10.5 15L16 9" stroke="currentColor" stroke-width="1.5" stroke-linecap="round" stroke-linejoin="round" />
    </symbol>

    <symbol id="bar-code" viewBox="0 0 24 24"  color="currentColor" fill="none">
        <path d="M3 4V20" stroke="currentColor" stroke-width="1.5" stroke-linecap="round" stroke-linejoin="round" />
        <path d="M7.5 4V17" stroke="currentColor" stroke-width="1.5" stroke-linecap="round" stroke-linejoin="round" />
        <path d="M12 4V17" stroke="currentColor" stroke-width="1.5" stroke-linecap="round" stroke-linejoin="round" />
        <path d="M16.5 4V17" stroke="currentColor" stroke-width="1.5" stroke-linecap="round" stroke-linejoin="round" />
        <path d="M21 4V20" stroke="currentColor" stroke-width="1.5" stroke-linecap="round" stroke-linejoin="round" />
        <path d="M7.49981 20H7.50879" stroke="currentColor" stroke-width="2" stroke-linecap="round" stroke-linejoin="round" />
        <path d="M11.9998 20H12.0088" stroke="currentColor" stroke-width="2" stroke-linecap="round" stroke-linejoin="round" />
        <path d="M16.4998 20H16.5088" stroke="currentColor" stroke-width="2" stroke-linecap="round" stroke-linejoin="round" />
    </symbol>

    <symbol id="help-circle" viewBox="0 0 24 24"  color="currentColor" fill="none">
        <circle cx="12" cy="12" r="10" stroke="currentColor" stroke-width="1.5" />
        <path d="M10 9C10 7.89543 10.8954 7 12 7C13.1046 7 14 7.89543 14 9C14 9.39815 13.8837 9.76913 13.6831 10.0808C13.0854 11.0097 12 11.8954 12 13V13.5" stroke="currentColor" stroke-width="1.5" stroke-linecap="round" />
        <path d="M11.992 17H12.001" stroke="currentColor" stroke-width="2" stroke-linecap="round" stroke-linejoin="round" />
    </symbol>
</svg>
</svg>