<svg xmlns="http://www.w3.org/2000/svg" xmlns:xlink="http://www.w3.org/1999/xlink" width="0" height="0">
    <symbol id="cancel-circle" viewBox="0 0 24 24" fill="none">
        <path d="M14.9994 15L9 9M9.00064 15L15 9" stroke="currentColor" stroke-width="1.5" stroke-linecap="round" stroke-linejoin="round" />
        <path d="M22 12C22 6.47715 17.5228 2 12 2C6.47715 2 2 6.47715 2 12C2 17.5228 6.47715 22 12 22C17.5228 22 22 17.5228 22 12Z" stroke="currentColor" stroke-width="1.5" />
    </symbol>

    <symbol id="cancel" viewBox="0 0 24 24"  color="currentColor" fill="none">
        <path d="M19.0005 4.99988L5.00049 18.9999M5.00049 4.99988L19.0005 18.9999" stroke="currentColor" stroke-width="1.5" stroke-linecap="round" stroke-linejoin="round" />
    </symbol>

    <symbol id="checkmark-circle" viewBox="0 0 24 24"  color="currentColor" fill="none">
        <path d="M22 12C22 6.47715 17.5228 2 12 2C6.47715 2 2 6.47715 2 12C2 17.5228 6.47715 22 12 22C17.5228 22 22 17.5228 22 12Z" stroke="currentColor" stroke-width="1.5" />
        <path d="M8 12.5L10.5 15L16 9" stroke="currentColor" stroke-width="1.5" stroke-linecap="round" stroke-linejoin="round" />
    </symbol>
</svg>