<svg xmlns="http://www.w3.org/2000/svg" xmlns:xlink="http://www.w3.org/1999/xlink" width="0" height="0">
    <symbol id="cancel-circle" viewBox="0 0 24 24" fill="none">
        <path d="M14.9994 15L9 9M9.00064 15L15 9" stroke="currentColor" stroke-width="1.5" stroke-linecap="round" stroke-linejoin="round" />
        <path d="M22 12C22 6.47715 17.5228 2 12 2C6.47715 2 2 6.47715 2 12C2 17.5228 6.47715 22 12 22C17.5228 22 22 17.5228 22 12Z" stroke="currentColor" stroke-width="1.5" />
    </symbol>

    <symbol id="cancel" viewBox="0 0 24 24"  color="currentColor" fill="none">
        <path d="M19.0005 4.99988L5.00049 18.9999M5.00049 4.99988L19.0005 18.9999" stroke="currentColor" stroke-width="1.5" stroke-linecap="round" stroke-linejoin="round" />
    </symbol>

    <symbol id="checkmark-circle" viewBox="0 0 24 24"  color="currentColor" fill="none">
        <path d="M22 12C22 6.47715 17.5228 2 12 2C6.47715 2 2 6.47715 2 12C2 17.5228 6.47715 22 12 22C17.5228 22 22 17.5228 22 12Z" stroke="currentColor" stroke-width="1.5" />
        <path d="M8 12.5L10.5 15L16 9" stroke="currentColor" stroke-width="1.5" stroke-linecap="round" stroke-linejoin="round" />
    </symbol>

    <symbol id="bar-code" viewBox="0 0 24 24"  color="currentColor" fill="none">
        <path d="M3 4V20" stroke="currentColor" stroke-width="1.5" stroke-linecap="round" stroke-linejoin="round" />
        <path d="M7.5 4V17" stroke="currentColor" stroke-width="1.5" stroke-linecap="round" stroke-linejoin="round" />
        <path d="M12 4V17" stroke="currentColor" stroke-width="1.5" stroke-linecap="round" stroke-linejoin="round" />
        <path d="M16.5 4V17" stroke="currentColor" stroke-width="1.5" stroke-linecap="round" stroke-linejoin="round" />
        <path d="M21 4V20" stroke="currentColor" stroke-width="1.5" stroke-linecap="round" stroke-linejoin="round" />
        <path d="M7.49981 20H7.50879" stroke="currentColor" stroke-width="2" stroke-linecap="round" stroke-linejoin="round" />
        <path d="M11.9998 20H12.0088" stroke="currentColor" stroke-width="2" stroke-linecap="round" stroke-linejoin="round" />
        <path d="M16.4998 20H16.5088" stroke="currentColor" stroke-width="2" stroke-linecap="round" stroke-linejoin="round" />
    </symbol>

    <symbol id="help-circle" viewBox="0 0 24 24"  color="currentColor" fill="none">
        <circle cx="12" cy="12" r="10" stroke="currentColor" stroke-width="1.5" />
        <path d="M10 9C10 7.89543 10.8954 7 12 7C13.1046 7 14 7.89543 14 9C14 9.39815 13.8837 9.76913 13.6831 10.0808C13.0854 11.0097 12 11.8954 12 13V13.5" stroke="currentColor" stroke-width="1.5" stroke-linecap="round" />
        <path d="M11.992 17H12.001" stroke="currentColor" stroke-width="2" stroke-linecap="round" stroke-linejoin="round" />
    </symbol>

    <symbol id="trash-bin" viewBox="0 0 24 24" fill="none" stroke-width="1.5" stroke="currentColor">
        <path d="M19.5 5.5L18.8803 15.5251C18.7219 18.0864 18.6428 19.3671 18.0008 20.2879C17.6833 20.7431 17.2747 21.1273 16.8007 21.416C15.8421 22 14.559 22 11.9927 22C9.42312 22 8.1383 22 7.17905 21.4149C6.7048 21.1257 6.296 20.7408 5.97868 20.2848C5.33688 19.3626 5.25945 18.0801 5.10461 15.5152L4.5 5.5" stroke="currentColor" stroke-width="1.5" stroke-linecap="round" />
        <path d="M3 5.5H21M16.0557 5.5L15.3731 4.09173C14.9196 3.15626 14.6928 2.68852 14.3017 2.39681C14.215 2.3321 14.1231 2.27454 14.027 2.2247C13.5939 2 13.0741 2 12.0345 2C10.9688 2 10.436 2 9.99568 2.23412C9.8981 2.28601 9.80498 2.3459 9.71729 2.41317C9.32164 2.7167 9.10063 3.20155 8.65861 4.17126L8.05292 5.5" stroke="currentColor" stroke-width="1.5" stroke-linecap="round" />
        <path d="M9.5 16.5L9.5 10.5" stroke="currentColor" stroke-width="1.5" stroke-linecap="round" />
        <path d="M14.5 16.5L14.5 10.5" stroke="currentColor" stroke-width="1.5" stroke-linecap="round" />
    </symbol>
</svg>